<svg width="48" height="48" viewBox="0 0 48 48" xmlns="http://www.w3.org/2000/svg">
    <g fill="#31853D" fill-rule="nonzero">
        <path d="m45.515 18.95-3.367-.572a19.012 19.012 0 0 0-1.353-3.266l1.984-2.776a2.954 2.954 0 0 0-.32-3.818l-2.987-2.986a2.942 2.942 0 0 0-2.094-.872c-.621 0-1.213.19-1.714.551l-2.786 1.984a18.814 18.814 0 0 0-3.387-1.393l-.56-3.327A2.96 2.96 0 0 0 26.003 0h-4.219a2.96 2.96 0 0 0-2.926 2.475l-.58 3.407c-1.123.351-2.216.812-3.258 1.373l-2.755-1.984a2.942 2.942 0 0 0-1.724-.551c-.792 0-1.543.31-2.094.872L5.45 8.578a2.966 2.966 0 0 0-.32 3.818l2.004 2.816a18.57 18.57 0 0 0-1.333 3.277l-3.327.56A2.96 2.96 0 0 0 0 21.977v4.219a2.96 2.96 0 0 0 2.475 2.926l3.407.581c.351 1.122.812 2.215 1.373 3.257l-1.974 2.745a2.954 2.954 0 0 0 .32 3.818l2.987 2.987a2.942 2.942 0 0 0 2.094.871c.622 0 1.213-.19 1.714-.55l2.816-2.005c1.012.531 2.074.962 3.166 1.303l.561 3.367a2.96 2.96 0 0 0 2.927 2.475h4.228a2.96 2.96 0 0 0 2.926-2.475l.572-3.367a19.012 19.012 0 0 0 3.266-1.353l2.776 1.984c.501.36 1.103.551 1.724.551.791 0 1.533-.31 2.094-.871l2.986-2.987a2.966 2.966 0 0 0 .321-3.818l-1.984-2.785a18.876 18.876 0 0 0 1.353-3.267l3.367-.561a2.96 2.96 0 0 0 2.475-2.927v-4.218a2.925 2.925 0 0 0-2.455-2.926zm-.23 7.144c0 .13-.09.241-.221.261l-4.209.701c-.531.09-.952.481-1.082.993a16.042 16.042 0 0 1-1.744 4.198c-.27.461-.25 1.032.06 1.473l2.476 3.488c.07.1.06.25-.03.34l-2.987 2.987c-.07.07-.14.08-.19.08-.06 0-.11-.02-.15-.05l-3.478-2.476a1.354 1.354 0 0 0-1.473-.06 16.042 16.042 0 0 1-4.199 1.744 1.33 1.33 0 0 0-.992 1.082l-.711 4.209a.26.26 0 0 1-.26.22h-4.22a.26.26 0 0 1-.26-.22l-.701-4.209a1.345 1.345 0 0 0-.992-1.082 16.657 16.657 0 0 1-4.11-1.684c-.21-.12-.45-.18-.68-.18-.271 0-.552.08-.782.25l-3.507 2.496c-.05.03-.1.05-.15.05-.04 0-.121-.01-.191-.08l-2.986-2.986a.272.272 0 0 1-.03-.341L9.95 33.84c.31-.441.33-1.023.06-1.483a15.89 15.89 0 0 1-1.764-4.19 1.372 1.372 0 0 0-1.082-.991l-4.239-.722a.26.26 0 0 1-.22-.26v-4.22c0-.13.09-.24.22-.26l4.179-.701c.53-.09.962-.481 1.092-1.002.37-1.473.942-2.896 1.714-4.209.27-.46.24-1.032-.07-1.463l-2.496-3.507c-.07-.1-.06-.25.03-.341l2.987-2.986c.07-.07.14-.08.19-.08.06 0 .11.02.15.05L14.16 9.94c.441.31 1.023.33 1.484.06a15.89 15.89 0 0 1 4.188-1.764c.511-.14.902-.56.992-1.082l.722-4.239a.26.26 0 0 1 .26-.22h4.22c.13 0 .24.09.26.22l.701 4.179c.09.531.481.962 1.002 1.092 1.513.38 2.956.972 4.3 1.764.46.27 1.031.25 1.472-.06l3.458-2.485c.05-.03.1-.05.15-.05.04 0 .12.01.19.08l2.986 2.986c.09.09.1.23.03.34L38.1 14.24c-.31.43-.33 1.012-.06 1.473a16.042 16.042 0 0 1 1.744 4.199c.13.52.561.911 1.082.992l4.209.711c.13.02.22.13.22.26v4.22h-.01z"/>
        <path d="M23.99 13.628c-5.712 0-10.352 4.64-10.352 10.352 0 5.712 4.64 10.352 10.352 10.352 5.712 0 10.352-4.64 10.352-10.352 0-5.712-4.64-10.352-10.352-10.352zm0 17.998a7.651 7.651 0 0 1-7.646-7.646 7.651 7.651 0 0 1 7.646-7.646 7.651 7.651 0 0 1 7.646 7.646 7.651 7.651 0 0 1-7.646 7.646z"/>
    </g>
</svg>
